<?xml version="1.0" encoding="UTF-8" standalone="no" ?>
<!DOCTYPE svg PUBLIC "-//W3C//DTD SVG 1.1//EN" "http://www.w3.org/Graphics/SVG/1.1/DTD/svg11.dtd">
<svg xmlns="http://www.w3.org/2000/svg" xmlns:xlink="http://www.w3.org/1999/xlink" version="1.1" width="211.2140625" height="90.25807999999998" xml:space="preserve">
<desc>Created with Fabric.js 1.6.0-rc.1</desc>
<defs></defs>
  <g transform="translate(105.87 62.51) scale(0.53 0.69)">
   <text font-family="Neuropol" font-size="40" font-weight="bold" style="stroke: none; stroke-width: 1; stroke-dasharray: none; stroke-linecap: butt; stroke-linejoin: miter; stroke-miterlimit: 10; fill: #37517e; fill-rule: nonzero; opacity: 1;" ><tspan x="-180.39" y="8.98" style="stroke: none; stroke-width: 0; stroke-dasharray: none; stroke-linecap: butt; stroke-linejoin: miter; stroke-miterlimit: 4; fill: #37517e; fill-rule: ; opacity: 1;">A</tspan><tspan x="-145.78" y="8.98" style="stroke: none; stroke-width: 0; stroke-dasharray: none; stroke-linecap: butt; stroke-linejoin: miter; stroke-miterlimit: 4; fill: #37517e; fill-rule: ; opacity: 1;">N</tspan><tspan x="-113.14" y="8.98" style="stroke: none; stroke-width: 0; stroke-dasharray: none; stroke-linecap: butt; stroke-linejoin: miter; stroke-miterlimit: 4; fill: #37517e; fill-rule: ; opacity: 1;">K</tspan><tspan x="-84.98" y="8.98" style="stroke: none; stroke-width: 0; stroke-dasharray: none; stroke-linecap: butt; stroke-linejoin: miter; stroke-miterlimit: 4; fill: #37517e; fill-rule: ; opacity: 1;"> </tspan><tspan x="-73.61" y="8.98" style="stroke: none; stroke-width: 0; stroke-dasharray: none; stroke-linecap: butt; stroke-linejoin: miter; stroke-miterlimit: 4; fill: #37517e; fill-rule: ; opacity: 1;">M</tspan><tspan x="-30.53" y="8.98" style="stroke: none; stroke-width: 0; stroke-dasharray: none; stroke-linecap: butt; stroke-linejoin: miter; stroke-miterlimit: 4; fill: #37517e; fill-rule: ; opacity: 1;">E</tspan><tspan x="-2.03" y="8.98" style="stroke: none; stroke-width: 0; stroke-dasharray: none; stroke-linecap: butt; stroke-linejoin: miter; stroke-miterlimit: 4; fill: #37517e; fill-rule: ; opacity: 1;">D</tspan><tspan x="30.59" y="8.98" style="stroke: none; stroke-width: 0; stroke-dasharray: none; stroke-linecap: butt; stroke-linejoin: miter; stroke-miterlimit: 4; fill: #37517e; fill-rule: ; opacity: 1;">I</tspan><tspan x="37.99" y="8.98" style="stroke: none; stroke-width: 0; stroke-dasharray: none; stroke-linecap: butt; stroke-linejoin: miter; stroke-miterlimit: 4; fill: #37517e; fill-rule: ; opacity: 1;">A</tspan><tspan x="72.6" y="8.98" style="stroke: none; stroke-width: 0; stroke-dasharray: none; stroke-linecap: butt; stroke-linejoin: miter; stroke-miterlimit: 4; fill: #37517e; fill-rule: ; opacity: 1;"> </tspan><tspan x="83.96" y="8.98" style="stroke: none; stroke-width: 0; stroke-dasharray: none; stroke-linecap: butt; stroke-linejoin: miter; stroke-miterlimit: 4; fill: #37517e; fill-rule: ; opacity: 1;">L</tspan><tspan x="113.16" y="8.98" style="stroke: none; stroke-width: 0; stroke-dasharray: none; stroke-linecap: butt; stroke-linejoin: miter; stroke-miterlimit: 4; fill: #37517e; fill-rule: ; opacity: 1;">A</tspan><tspan x="147.77" y="8.98" style="stroke: none; stroke-width: 0; stroke-dasharray: none; stroke-linecap: butt; stroke-linejoin: miter; stroke-miterlimit: 4; fill: #37517e; fill-rule: ; opacity: 1;">B</tspan></text>
 </g>
<g style="stroke: none; stroke-width: 1; stroke-dasharray: none; stroke-linecap: butt; stroke-linejoin: miter; stroke-miterlimit: 10; fill: none; fill-rule: nonzero; opacity: 1;" transform="translate(128.22000000000003 10) scale(0.07 0.07)" >
  <polygon points="322.99,339.24 189.01,256 322.99,172.76 " style="stroke: none; stroke-width: 1; stroke-dasharray: none; stroke-linecap: butt; stroke-linejoin: miter; stroke-miterlimit: 10; fill: #CFF09E; fill-rule: nonzero; opacity: 1;" transform="  matrix(1 0 0 1 0 0) "/>
  <path d="M 330.04 160.072 c -4.607 -2.561 -10.24 -2.422 -14.717 0.357 l -111.799 69.458 v -58.097 c 0 -8.017 -6.5 -14.518 -14.518 -14.518 c -8.018 0 -14.518 6.501 -14.518 14.518 v 168.417 c 0 8.017 6.5 14.518 14.518 14.518 c 8.018 0 14.518 -6.501 14.518 -14.518 v -58.097 l 111.799 69.458 c 2.342 1.455 5 2.186 7.663 2.186 c 2.426 0 4.858 -0.608 7.054 -1.829 c 4.607 -2.562 7.464 -7.417 7.464 -12.689 V 172.761 C 337.503 167.49 334.646 162.633 330.04 160.072 z M 308.467 313.128 L 216.518 256 l 91.95 -57.128 V 313.128 L 308.467 313.128 z" style="stroke: none; stroke-width: 1; stroke-dasharray: none; stroke-linecap: butt; stroke-linejoin: miter; stroke-miterlimit: 10; fill: #507C5C; fill-rule: nonzero; opacity: 1;" transform=" matrix(1 0 0 1 0 0) " stroke-linecap="round" />
  <path d="M 255.996 512 c -68.38 0 -132.667 -26.629 -181.02 -74.98 c -5.669 -5.669 -5.669 -14.862 0 -20.533 c 5.669 -5.668 14.862 -5.668 20.533 0 c 42.867 42.867 99.863 66.476 160.488 66.476 s 117.62 -23.609 160.488 -66.476 S 482.961 316.624 482.961 256 s -23.608 -117.62 -66.476 -160.488 s -99.863 -66.476 -160.488 -66.476 S 138.376 52.645 95.509 95.512 c -57.256 57.256 -79.728 141.45 -58.651 219.728 c 2.085 7.742 -2.501 15.708 -10.244 17.795 c -7.74 2.083 -15.708 -2.501 -17.793 -10.245 c -11.501 -42.712 -11.755 -87.935 -0.735 -130.784 c 11.355 -44.152 34.486 -84.62 66.892 -117.025 C 123.328 26.629 187.617 0 255.996 0 s 132.667 26.629 181.02 74.98 c 48.352 48.352 74.98 112.639 74.98 181.02 s -26.629 132.668 -74.98 181.02 C 388.663 485.371 324.376 512 255.996 512 z" style="stroke: none; stroke-width: 1; stroke-dasharray: none; stroke-linecap: butt; stroke-linejoin: miter; stroke-miterlimit: 10; fill: #507C5C; fill-rule: nonzero; opacity: 1;" transform=" matrix(1 0 0 1 0 0) " stroke-linecap="round" />
  <path d="M 255.996 452.028 c -108.091 0 -196.028 -87.937 -196.028 -196.028 S 147.906 59.972 255.996 59.972 c 69.93 0 135.07 37.687 169.997 98.355 c 4 6.948 1.61 15.825 -5.338 19.824 c -6.947 4.004 -15.825 1.611 -19.826 -5.338 c -29.76 -51.693 -85.258 -83.807 -144.833 -83.807 c -92.08 0 -166.992 74.913 -166.992 166.992 S 163.918 422.99 255.996 422.99 s 166.992 -74.913 166.992 -166.992 c 0 -8.017 6.5 -14.518 14.518 -14.518 c 8.018 0 14.518 6.501 14.518 14.518 C 452.024 364.091 364.086 452.028 255.996 452.028 z" style="stroke: none; stroke-width: 1; stroke-dasharray: none; stroke-linecap: butt; stroke-linejoin: miter; stroke-miterlimit: 10; fill: #507C5C; fill-rule: nonzero; opacity: 1;" transform=" matrix(1 0 0 1 0 0) " stroke-linecap="round" />
</g>
</svg>