<?xml version="1.0" encoding="iso-8859-1"?><!-- Generator: Adobe Illustrator 19.0.0, SVG Export Plug-In . SVG Version: 6.00 Build 0)  --><svg xmlns="http://www.w3.org/2000/svg" xmlns:xlink="http://www.w3.org/1999/xlink" version="1.1" id="Layer_1" x="0px" y="0px" viewBox="0 0 508 508" style="enable-background:new 0 0 508 508;" xml:space="preserve">
<circle style="fill:#2183AA;" cx="254" cy="254" r="254"/>
<path style="fill:#4F6673;" d="M93,377v7.4c0,0.8,0.6,1.4,1.4,1.4h319c0.8,0,1.4-0.6,1.4-1.4V377H93z"/>
<path style="fill:#EDEEF0;" d="M413.2,378.4H94.8c-1.2,0-2-0.6-1.6-1.6l33.4-105.4c0.2-0.6,1-1,2-1H382c1,0,1.8,0.4,2,1l31,105.4  C415.2,377.8,414.4,378.4,413.2,378.4z"/>
<g>
	<polygon style="fill:#4F6673;" points="147,282.2 133.8,282.2 135.6,276.2 148.6,276.2  "/>
	<polygon style="fill:#4F6673;" points="144.2,293.4 130.6,293.4 132.4,287.2 145.8,287.2  "/>
	<polygon style="fill:#4F6673;" points="160.6,293.4 147,293.4 148.6,287.2 162,287.2  "/>
	<polygon style="fill:#4F6673;" points="177,293.4 163.6,293.4 165,287.2 178.2,287.2  "/>
	<polygon style="fill:#4F6673;" points="193.6,293.4 180,293.4 181.2,287.2 194.6,287.2  "/>
	<polygon style="fill:#4F6673;" points="210,293.4 196.6,293.4 197.4,287.2 210.8,287.2  "/>
	<polygon style="fill:#4F6673;" points="226.6,293.4 213,293.4 213.6,287.2 227,287.2  "/>
	<polygon style="fill:#4F6673;" points="243,293.4 229.6,293.4 230,287.2 243.4,287.2  "/>
	<polygon style="fill:#4F6673;" points="259.6,293.4 246,293.4 246.2,287.2 259.6,287.2  "/>
	<polygon style="fill:#4F6673;" points="276,293.4 262.6,293.4 262.4,287.2 275.8,287.2  "/>
	<polygon style="fill:#4F6673;" points="292.6,293.4 279,293.4 278.8,287.2 292,287.2  "/>
	<polygon style="fill:#4F6673;" points="309,293.4 295.4,293.4 295,287.2 308.4,287.2  "/>
	<polygon style="fill:#4F6673;" points="325.6,293.4 312,293.4 311.2,287.2 324.6,287.2  "/>
	<polygon style="fill:#4F6673;" points="342,293.4 328.4,293.4 327.4,287.2 340.8,287.2  "/>
	<polygon style="fill:#4F6673;" points="147.8,302.2 128,302.2 130,295.6 149.4,295.6  "/>
	<polygon style="fill:#4F6673;" points="165.8,302.2 151.8,302.2 153.4,295.6 167.2,295.6  "/>
	<polygon style="fill:#4F6673;" points="183,302.2 168.8,302.2 170.2,295.6 184,295.6  "/>
	<polygon style="fill:#4F6673;" points="200,302.2 186,302.2 187,295.6 201,295.6  "/>
	<polygon style="fill:#4F6673;" points="217.2,302.2 203.2,302.2 204,295.6 217.8,295.6  "/>
	<polygon style="fill:#4F6673;" points="234.2,302.2 220.2,302.2 220.8,295.6 234.6,295.6  "/>
	<polygon style="fill:#4F6673;" points="251.4,302.2 237.4,302.2 237.6,295.6 251.6,295.6  "/>
	<polygon style="fill:#4F6673;" points="268.6,302.2 254.4,302.2 254.6,295.6 268.4,295.6  "/>
	<polygon style="fill:#4F6673;" points="285.6,302.2 271.6,302.2 271.4,295.6 285.2,295.6  "/>
	<polygon style="fill:#4F6673;" points="302.8,302.2 288.6,302.2 288.2,295.6 302.2,295.6  "/>
	<polygon style="fill:#4F6673;" points="319.8,302.2 305.8,302.2 305.2,295.6 319,295.6  "/>
	<polygon style="fill:#4F6673;" points="337,302.2 323,302.2 322,295.6 335.8,295.6  "/>
	<polygon style="fill:#4F6673;" points="354,302.2 340,302.2 338.8,295.6 352.8,295.6  "/>
	<polygon style="fill:#4F6673;" points="152.4,311.8 125.2,311.8 127.2,304.8 154,304.8  "/>
	<polygon style="fill:#4F6673;" points="170.6,311.8 156.2,311.8 157.8,304.8 172,304.8  "/>
	<polygon style="fill:#4F6673;" points="188,311.8 173.8,311.8 175,304.8 189.2,304.8  "/>
	<polygon style="fill:#4F6673;" points="205.6,311.8 191.2,311.8 192.2,304.8 206.4,304.8  "/>
	<polygon style="fill:#4F6673;" points="223,311.8 208.6,311.8 209.4,304.8 223.6,304.8  "/>
	<polygon style="fill:#4F6673;" points="240.6,311.8 226.2,311.8 226.6,304.8 240.8,304.8  "/>
	<polygon style="fill:#4F6673;" points="258,311.8 243.6,311.8 243.8,304.8 258,304.8  "/>
	<polygon style="fill:#4F6673;" points="275.4,311.8 261.2,311.8 261,304.8 275.2,304.8  "/>
	<polygon style="fill:#4F6673;" points="293,311.8 278.6,311.8 278.4,304.8 292.4,304.8  "/>
	<polygon style="fill:#4F6673;" points="310.4,311.8 296,311.8 295.6,304.8 309.6,304.8  "/>
	<polygon style="fill:#4F6673;" points="328,311.8 313.6,311.8 312.8,304.8 326.8,304.8  "/>
	<polygon style="fill:#4F6673;" points="345.4,311.8 331,311.8 330,304.8 344.2,304.8  "/>
	<polygon style="fill:#4F6673;" points="157.6,321.2 122.4,321.2 124.6,314.2 159,314.2  "/>
	<polygon style="fill:#4F6673;" points="176,321.2 161.4,321.2 163,314.2 177.4,314.2  "/>
	<polygon style="fill:#4F6673;" points="194,321.2 179.2,321.2 180.4,314.2 195,314.2  "/>
	<polygon style="fill:#4F6673;" points="211.8,321.2 197,321.2 198,314.2 212.4,314.2  "/>
	<polygon style="fill:#4F6673;" points="229.6,321.2 215,321.2 215.6,314.2 230,314.2  "/>
	<polygon style="fill:#4F6673;" points="247.4,321.2 232.8,321.2 233.2,314.2 247.6,314.2  "/>
	<polygon style="fill:#4F6673;" points="265.2,321.2 250.6,321.2 250.8,314.2 265.2,314.2  "/>
	<polygon style="fill:#4F6673;" points="283.2,321.2 268.4,321.2 268.4,314.2 282.8,314.2  "/>
	<polygon style="fill:#4F6673;" points="301,321.2 286.2,321.2 285.8,314.2 300.4,314.2  "/>
	<polygon style="fill:#4F6673;" points="318.8,321.2 304.2,321.2 303.4,314.2 317.8,314.2  "/>
	<polygon style="fill:#4F6673;" points="336.6,321.2 322,321.2 321,314.2 335.4,314.2  "/>
	<polygon style="fill:#4F6673;" points="161.6,332 142.8,332 144.6,324.4 163,324.4  "/>
	<polygon style="fill:#4F6673;" points="185,332 166,332 167.6,324.4 186,324.4  "/>
	<polygon style="fill:#4F6673;" points="319.2,332 300.8,332 300.2,324.4 318.2,324.4  "/>
	<polygon style="fill:#4F6673;" points="341.8,332 323.6,332 322.6,324.4 340.6,324.4  "/>
	<polygon style="fill:#4F6673;" points="364.4,332 346.2,332 344.8,324.4 362.8,324.4  "/>
	<polygon style="fill:#4F6673;" points="386.2,332 367.8,332 366.2,324.4 384.2,324.4  "/>
	<polygon style="fill:#4F6673;" points="297.6,332 188.4,332 189.6,324.4 297,324.4  "/>
	<polygon style="fill:#4F6673;" points="384.8,321.2 339.8,321.2 338.6,314.2 382.8,314.2  "/>
	<polygon style="fill:#4F6673;" points="382.2,311.8 348.6,311.8 347.2,304.8 380.4,304.8  "/>
	<polygon style="fill:#4F6673;" points="379.6,302.2 357.4,302.2 356,295.6 378,295.6  "/>
	<polygon style="fill:#4F6673;" points="377.4,293.4 345,293.4 343.8,287.2 375.8,287.2  "/>
	<polygon style="fill:#4F6673;" points="180,282.2 167.2,282.2 168.4,276.2 181.2,276.2  "/>
	<polygon style="fill:#4F6673;" points="196.4,282.2 183.4,282.2 184.4,276.2 197.2,276.2  "/>
	<polygon style="fill:#4F6673;" points="212.6,282.2 199.6,282.2 200.4,276.2 213.2,276.2  "/>
	<polygon style="fill:#4F6673;" points="228.8,282.2 215.8,282.2 216.4,276.2 229.2,276.2  "/>
	<polygon style="fill:#4F6673;" points="252.8,282.2 240,282.2 240.2,276.2 253,276.2  "/>
	<polygon style="fill:#4F6673;" points="269.2,282.2 256.2,282.2 256.2,276.2 269,276.2  "/>
	<polygon style="fill:#4F6673;" points="285.4,282.2 272.4,282.2 272.2,276.2 285,276.2  "/>
	<polygon style="fill:#4F6673;" points="301.6,282.2 288.6,282.2 288.2,276.2 301,276.2  "/>
	<polygon style="fill:#4F6673;" points="325.6,282.2 312.6,282.2 312,276.2 324.8,276.2  "/>
	<polygon style="fill:#4F6673;" points="341.8,282.2 329,282.2 328,276.2 340.8,276.2  "/>
	<polygon style="fill:#4F6673;" points="358.2,282.2 345.2,282.2 344,276.2 356.8,276.2  "/>
	<polygon style="fill:#4F6673;" points="374.4,282.2 361.4,282.2 360,276.2 372.8,276.2  "/>
	<path style="fill:#4F6673;" d="M289.8,371.2H217c-2.6,0-4.6-1.6-4.4-3.4l2.6-27.8c0.2-1.6,2.2-3,4.8-3h68c2.4,0,4.6,1.4,4.6,3   l1.8,27.8C294.6,369.6,292.4,371.2,289.8,371.2z"/>
</g>
<path style="fill:#082C48;" d="M381,111.8H130.2c-2,0-3.8,1.6-3.8,3.8v156h258.2v-156C384.8,113.4,383,111.8,381,111.8z"/>
<path style="fill:#4F6673;" d="M370.4,122.2H141c-2.2,0-4,1.8-4,4v134.6h237.4V126.2C374.4,124,372.6,122.2,370.4,122.2z"/>
<g>
	<path style="fill:#FFFFFF;" d="M315,125.8c-1,0-2,0-3,0.2v-0.2c0-16.4-13.2-29.6-29.6-29.6c-4.8,0-9.2,1.2-13.2,3.2   c-6.8-12.2-19.8-20.6-34.8-20.6c-22,0-39.8,17.8-39.8,39.8c0,1.4,0,2.6,0.2,4c-14.6,1.6-26,13.8-26,28.8c0,16,13,29,29,29   c3.2,0,6.4-0.6,9.4-1.6c5.2,12.4,17.6,21.2,32,21.2c12.8,0,24-6.8,30-17.2c3.2,1.8,6.8,2.8,10.6,2.8c8,0,15-4.4,18.8-10.8   c4.6,3.4,10.2,5.6,16.4,5.6c15,0,27.2-12.2,27.2-27.2C342.4,138,330.2,125.8,315,125.8z"/>
	<path style="fill:#FFFFFF;" d="M211.4,127c9.6,0,18,5,23,12.4c2.8-1.6,6-2.4,9.6-2.4c9.2,0,16.8,6.2,19,14.6c0-0.8,0.2-1.4,0.2-2.2   c0-10.2-8.4-18.6-18.6-18.6c-3.2,0-6.2,0.8-9,2.4c-4.6-7-12.6-11.6-21.6-11.6c-10.2,0-19.2,6-23.4,14.8   C196,130.4,203.2,127,211.4,127z"/>
	<path style="fill:#FFFFFF;" d="M294.4,132.4c11.4,0,21.4,6.8,26,16.4c-1.8-12.8-12.8-22.4-26-22.4s-24.2,9.8-26,22.4   C273.2,139.2,283,132.4,294.4,132.4z"/>
</g>
<g>
</g>
<g>
</g>
<g>
</g>
<g>
</g>
<g>
</g>
<g>
</g>
<g>
</g>
<g>
</g>
<g>
</g>
<g>
</g>
<g>
</g>
<g>
</g>
<g>
</g>
<g>
</g>
<g>
</g>
</svg>